# xmcd
#
# Track frame offsets:
#	150
#	15554
#	36655
#	52795
#	72399
#	93194
#	111689
#	126869
#	146800
#	168487
#	186265
#	207017
#	227080
#	248467
#	271051
#	292034
#	313880
#	334409
#
# Disc length: 4721 seconds
#
# Revision: 1
# Processed by: cddbd v1.5.2PL0 Copyright (c) Steve Scherf et al.
# Submitted via: audiograbber 1.83.01
#
DISCID=13126f12
DTITLE=Whitney Houston - Greatest Hits
DYEAR=2012
DGENRE=Pop
TTITLE0=Million Dollar Bill
TTITLE1=It's Not Right But It's Okay
TTITLE2=Whatchulookinat
TTITLE3=I Learned From The Best
TTITLE4=Heartbreak Hotel (Feat. Faith Evans And Kelly Price)
TTITLE5=If I Told You That (Feat. George Michael)
TTITLE6=Exhale (Shoop Shoop)
TTITLE7=Run To You
TTITLE8=I Have Nothing
TTITLE9=My Love Is Your Love
TTITLE10=Where Do Broken Hearts Go
TTITLE11=I Look To You
TTITLE12=One Moment In Time
TTITLE13=I'm Your Baby Tonight
TTITLE14=How Will I Know
TTITLE15=I Wanna Dance With Somebody (Who Loves Me)
TTITLE16=When You Believe (Feat. Mariah Carey)
TTITLE17=I Will Always Love You
EXTD=
EXTT0=
EXTT1=
EXTT2=
EXTT3=
EXTT4=
EXTT5=
EXTT6=
EXTT7=
EXTT8=
EXTT9=
EXTT10=
EXTT11=
EXTT12=
EXTT13=
EXTT14=
EXTT15=
EXTT16=
EXTT17=
PLAYORDER=
